<svg width="128" height="43" viewBox="0 0 128 43" fill="none" xmlns="http://www.w3.org/2000/svg">
<path d="M6.82006 14.0908L22.0645 16.3527L11.0321 27.3105L13.6403 42.792L-0.000188828 35.4868V0L6.82006 14.0908Z" fill="#577399"/>
<path d="M15.2444 14.0908L0 16.3527L11.0323 27.3105L8.42414 42.792L22.0646 35.4868V0L15.2444 14.0908Z" fill="#364B67"/>
<path d="M41.7987 25.951C41.7987 25.507 41.729 25.1152 41.5897 24.7757C41.4591 24.4275 41.2241 24.114 40.8845 23.8355C40.5537 23.5569 40.0923 23.2913 39.5003 23.0388C38.917 22.7864 38.177 22.5295 37.2802 22.2684C36.34 21.9898 35.4911 21.6807 34.7337 21.3412C33.9763 20.9929 33.3277 20.5968 32.7879 20.1528C32.2481 19.7088 31.8346 19.1995 31.5473 18.6249C31.26 18.0503 31.1163 17.393 31.1163 16.653C31.1163 15.9129 31.2687 15.2295 31.5734 14.6027C31.8781 13.9758 32.3134 13.4317 32.8793 12.9703C33.4539 12.5002 34.1373 12.1345 34.9296 11.8733C35.7218 11.6121 36.6055 11.4816 37.5806 11.4816C39.0084 11.4816 40.2185 11.7558 41.211 12.3043C42.2122 12.8441 42.974 13.5536 43.4964 14.4329C44.0187 15.3035 44.2799 16.2351 44.2799 17.2276H41.7726C41.7726 16.5137 41.6202 15.8825 41.3155 15.334C41.0108 14.7768 40.5494 14.3415 39.9312 14.0281C39.3131 13.706 38.5296 13.5449 37.5806 13.5449C36.6839 13.5449 35.9439 13.6798 35.3605 13.9497C34.7772 14.2196 34.3419 14.5853 34.0546 15.0467C33.776 15.5081 33.6367 16.0348 33.6367 16.6268C33.6367 17.0273 33.7195 17.393 33.8849 17.7238C34.059 18.0459 34.3245 18.3463 34.6815 18.6249C35.0471 18.9035 35.5086 19.1603 36.0657 19.3954C36.6316 19.6304 37.3064 19.8568 38.0899 20.0744C39.1695 20.3791 40.101 20.7187 40.8845 21.093C41.6681 21.4674 42.3123 21.8896 42.8173 22.3598C43.3309 22.8212 43.7097 23.3479 43.9534 23.9399C44.2059 24.5232 44.3321 25.1849 44.3321 25.9249C44.3321 26.6997 44.1754 27.4006 43.862 28.0274C43.5486 28.6543 43.1002 29.1897 42.5169 29.6337C41.9336 30.0777 41.2328 30.4216 40.4144 30.6654C39.6048 30.9004 38.6993 31.018 37.6981 31.018C36.8188 31.018 35.9526 30.8961 35.0994 30.6523C34.2549 30.4085 33.4844 30.0429 32.7879 29.5553C32.1001 29.0678 31.5473 28.4671 31.1294 27.7532C30.7202 27.0306 30.5156 26.1948 30.5156 25.2458H33.023C33.023 25.8988 33.1492 26.4603 33.4017 26.9305C33.6542 27.3919 33.998 27.7749 34.4334 28.0797C34.8774 28.3844 35.378 28.6107 35.9351 28.7587C36.501 28.898 37.0887 28.9677 37.6981 28.9677C38.5774 28.9677 39.3218 28.8458 39.9312 28.602C40.5407 28.3583 41.0021 28.01 41.3155 27.5573C41.6376 27.1046 41.7987 26.5692 41.7987 25.951Z" fill="#2A2B2E"/>
<path d="M54.1259 11.7427V30.7568H51.6055V11.7427H54.1259Z" fill="#2A2B2E"/>
<path d="M62.5877 11.7427H68.8822C70.31 11.7427 71.5158 11.9604 72.4996 12.3957C73.4921 12.831 74.2451 13.4752 74.7588 14.3284C75.2811 15.1729 75.5423 16.2133 75.5423 17.4496C75.5423 18.3202 75.3639 19.1168 75.0069 19.8394C74.6587 20.5533 74.1537 21.1627 73.4921 21.6676C72.8391 22.1639 72.0556 22.5339 71.1414 22.7777L70.4362 23.0519H64.5205L64.4943 21.0016H68.9605C69.866 21.0016 70.6191 20.8449 71.2198 20.5315C71.8205 20.2094 72.2732 19.7784 72.5779 19.2387C72.8826 18.6989 73.035 18.1025 73.035 17.4496C73.035 16.7182 72.8913 16.0784 72.604 15.5299C72.3167 14.9814 71.864 14.5591 71.2459 14.2631C70.6365 13.9584 69.8486 13.8061 68.8822 13.8061H65.1081V30.7568H62.5877V11.7427ZM73.701 30.7568L69.0781 22.1378L71.703 22.1247L76.3912 30.6001V30.7568H73.701Z" fill="#2A2B2E"/>
<path d="M85.6495 11.7427V30.7568H83.1291V11.7427H85.6495Z" fill="#2A2B2E"/>
<path d="M104.99 11.7427H107.497V24.6059C107.497 26.0337 107.179 27.2221 106.544 28.1711C105.908 29.12 105.064 29.8339 104.01 30.3128C102.965 30.7829 101.829 31.018 100.602 31.018C99.3132 31.018 98.1466 30.7829 97.1018 30.3128C96.0658 29.8339 95.2431 29.12 94.6337 28.1711C94.033 27.2221 93.7326 26.0337 93.7326 24.6059V11.7427H96.2269V24.6059C96.2269 25.5984 96.4097 26.4168 96.7754 27.061C97.141 27.7053 97.6503 28.1841 98.3033 28.4975C98.9649 28.811 99.7311 28.9677 100.602 28.9677C101.481 28.9677 102.247 28.811 102.9 28.4975C103.562 28.1841 104.075 27.7053 104.441 27.061C104.807 26.4168 104.99 25.5984 104.99 24.6059V11.7427Z" fill="#2A2B2E"/>
<path d="M125.466 25.951C125.466 25.507 125.396 25.1152 125.257 24.7757C125.126 24.4275 124.891 24.114 124.552 23.8355C124.221 23.5569 123.759 23.2913 123.167 23.0388C122.584 22.7864 121.844 22.5295 120.947 22.2684C120.007 21.9898 119.158 21.6807 118.401 21.3412C117.643 20.9929 116.995 20.5968 116.455 20.1528C115.915 19.7088 115.502 19.1995 115.214 18.6249C114.927 18.0503 114.783 17.393 114.783 16.653C114.783 15.9129 114.936 15.2295 115.24 14.6027C115.545 13.9758 115.98 13.4317 116.546 12.9703C117.121 12.5002 117.804 12.1345 118.597 11.8733C119.389 11.6121 120.273 11.4816 121.248 11.4816C122.675 11.4816 123.886 11.7558 124.878 12.3043C125.879 12.8441 126.641 13.5536 127.163 14.4329C127.686 15.3035 127.947 16.2351 127.947 17.2276H125.44C125.44 16.5137 125.287 15.8825 124.982 15.334C124.678 14.7768 124.216 14.3415 123.598 14.0281C122.98 13.706 122.197 13.5449 121.248 13.5449C120.351 13.5449 119.611 13.6798 119.028 13.9497C118.444 14.2196 118.009 14.5853 117.722 15.0467C117.443 15.5081 117.304 16.0348 117.304 16.6268C117.304 17.0273 117.386 17.393 117.552 17.7238C117.726 18.0459 117.992 18.3463 118.348 18.6249C118.714 18.9035 119.176 19.1603 119.733 19.3954C120.299 19.6304 120.973 19.8568 121.757 20.0744C122.836 20.3791 123.768 20.7187 124.552 21.093C125.335 21.4674 125.979 21.8896 126.484 22.3598C126.998 22.8212 127.377 23.3479 127.62 23.9399C127.873 24.5232 127.999 25.1849 127.999 25.9249C127.999 26.6997 127.842 27.4006 127.529 28.0274C127.216 28.6543 126.767 29.1897 126.184 29.6337C125.601 30.0777 124.9 30.4216 124.081 30.6654C123.272 30.9004 122.366 31.018 121.365 31.018C120.486 31.018 119.62 30.8961 118.766 30.6523C117.922 30.4085 117.151 30.0429 116.455 29.5553C115.767 29.0678 115.214 28.4671 114.796 27.7532C114.387 27.0306 114.183 26.1948 114.183 25.2458H116.69C116.69 25.8988 116.816 26.4603 117.069 26.9305C117.321 27.3919 117.665 27.7749 118.1 28.0797C118.544 28.3844 119.045 28.6107 119.602 28.7587C120.168 28.898 120.756 28.9677 121.365 28.9677C122.244 28.9677 122.989 28.8458 123.598 28.602C124.208 28.3583 124.669 28.01 124.982 27.5573C125.305 27.1046 125.466 26.5692 125.466 25.951Z" fill="#2A2B2E"/>
</svg>
